<svg width="16" height="16" viewBox="0 0 16 16" fill="none" xmlns="http://www.w3.org/2000/svg">
<path d="M9.77401 6.66958L9.77962 6.66577L9.75982 6.59627C9.71625 6.44333 9.564 6.32762 9.3989 6.34768C9.36766 6.34936 9.2924 6.35927 9.19011 6.38425C9.07397 6.41262 8.91755 6.4617 8.74075 6.5449C8.40542 6.7027 7.99708 6.98317 7.6526 7.47625C7.38761 7.30785 6.97325 7.15787 6.42653 7.29393C6.29055 7.31879 6.17483 7.43287 6.17119 7.59219C6.08092 8.23014 6.30839 8.84741 6.61299 9.35902C6.91327 9.86338 7.29487 10.2758 7.5466 10.5209C7.56249 10.5582 7.58043 10.594 7.59543 10.6239L7.59569 10.6244C7.61097 10.6549 7.62171 10.6766 7.62821 10.6922C7.6364 10.8631 7.64822 11.0075 7.66007 11.1146C7.66617 11.1697 7.67236 11.2157 7.67821 11.2506C7.68112 11.268 7.68411 11.2836 7.68715 11.2966C7.68865 11.3031 7.69087 11.3122 7.69412 11.3218C7.72454 11.4852 7.8832 11.5874 8.03111 11.5874H8.07923V11.5882L8.09181 11.5866C8.27317 11.5636 8.41337 11.385 8.36923 11.1959L8.36853 11.1914L8.36487 11.1666C8.36174 11.1447 8.35736 11.1121 8.35247 11.0699C8.3436 10.9937 8.33307 10.8866 8.32522 10.7559C8.56205 10.4972 9.20005 9.75682 9.52866 9.1003L9.52867 9.10031L9.52938 9.09883C9.81883 8.49604 9.8759 7.8828 9.86161 7.4168C9.85445 7.18344 9.82936 6.98594 9.80607 6.84366C9.79441 6.77248 9.78321 6.71516 9.77498 6.67436L9.77401 6.66958ZM6.9818 8.07858C6.92085 8.12217 6.88058 8.17847 6.85872 8.23969C6.83687 8.13851 6.8234 8.03686 6.82009 7.93543C6.98554 7.93504 7.1176 7.97422 7.21917 8.02466C7.14071 8.01591 7.05964 8.03346 6.99031 8.07313L6.99005 8.07268L6.9818 8.07858ZM8.89404 8.78798C8.75729 9.05723 8.55609 9.3521 8.35423 9.61323C8.44352 9.07763 8.62863 8.48307 9.00878 7.96331L9.00879 7.96332L9.00941 7.96245C9.11803 7.81055 9.09966 7.6022 8.93811 7.48668C8.82302 7.40439 8.67553 7.39499 8.56056 7.46552C8.76994 7.28696 8.97675 7.18321 9.13929 7.12279C9.2005 7.49403 9.20811 8.15933 8.90236 8.77133L8.89404 8.78798ZM8.00875 8.17271C8.14758 7.90648 8.30801 7.70283 8.4705 7.54701C8.46797 7.55028 8.46549 7.55361 8.46304 7.55701C8.17359 7.94345 7.97559 8.36364 7.84137 8.77625C7.86205 8.57287 7.91467 8.36898 8.00875 8.17271Z" fill="#213F7D" stroke="#213F7D" stroke-width="0.2"/>
<path d="M4.46 11.84C4.46 12.0234 4.61664 12.18 4.8 12.18C4.98335 12.18 5.14 12.0234 5.14 11.84V5.76C5.14 5.57665 4.98335 5.42 4.8 5.42C4.61664 5.42 4.46 5.57665 4.46 5.76V11.84Z" fill="#213F7D" stroke="#213F7D" stroke-width="0.2"/>
<path d="M2.85996 11.84C2.85996 12.0234 3.01661 12.18 3.19996 12.18C3.38331 12.18 3.53996 12.0234 3.53996 11.84V5.76C3.53996 5.57665 3.38331 5.42 3.19996 5.42C3.01661 5.42 2.85996 5.57665 2.85996 5.76V11.84Z" fill="#213F7D" stroke="#213F7D" stroke-width="0.2"/>
<path d="M10.86 11.84C10.86 12.0234 11.0166 12.18 11.2 12.18C11.3833 12.18 11.54 12.0234 11.54 11.84V5.76C11.54 5.57665 11.3833 5.42 11.2 5.42C11.0166 5.42 10.86 5.57665 10.86 5.76V11.84Z" fill="#213F7D" stroke="#213F7D" stroke-width="0.2"/>
<path d="M12.46 11.84C12.46 12.0234 12.6166 12.18 12.8 12.18C12.9834 12.18 13.14 12.0234 13.14 11.84V5.76C13.14 5.57665 12.9834 5.42 12.8 5.42C12.6166 5.42 12.46 5.57665 12.46 5.76V11.84Z" fill="#213F7D" stroke="#213F7D" stroke-width="0.2"/>
<path d="M13.36 5.3H13.5821L13.5367 5.24873C13.6335 5.18874 13.7012 5.08323 13.7148 4.97134L13.7155 4.97143V4.9593C13.7155 4.8291 13.6337 4.69699 13.5169 4.64605L8.18346 1.46845C8.08113 1.39472 7.94242 1.40256 7.83668 1.46611C7.83664 1.46613 7.8366 1.46616 7.83656 1.46618L2.47685 4.66601L2.47678 4.6659L2.47264 4.66866C2.35042 4.75014 2.27547 4.88566 2.31856 5.04572C2.34561 5.1924 2.48642 5.3 2.63998 5.3H13.36ZM12.119 4.62H3.8658L7.99988 2.1484L12.119 4.62Z" fill="#213F7D" stroke="#213F7D" stroke-width="0.2"/>
<path d="M2.63996 12.98H13.36C13.5433 12.98 13.7 12.8233 13.7 12.64C13.7 12.4566 13.5433 12.3 13.36 12.3H2.63996C2.45661 12.3 2.29996 12.4566 2.29996 12.64C2.29996 12.8233 2.45661 12.98 2.63996 12.98Z" fill="#213F7D" stroke="#213F7D" stroke-width="0.2"/>
<path d="M1.83998 13.78H14.16C14.3433 13.78 14.5 13.6234 14.5 13.44C14.5 13.2566 14.3433 13.1 14.16 13.1H1.83998C1.65662 13.1 1.49998 13.2566 1.49998 13.44C1.49998 13.6234 1.65662 13.78 1.83998 13.78Z" fill="#213F7D" stroke="#213F7D" stroke-width="0.2"/>
<path d="M1.03999 14.58H14.96C15.1433 14.58 15.3 14.4234 15.3 14.24C15.3 14.0566 15.1433 13.9 14.96 13.9H1.03999C0.856635 13.9 0.699988 14.0566 0.699988 14.24C0.699988 14.4234 0.856635 14.58 1.03999 14.58Z" fill="#213F7D" stroke="#213F7D" stroke-width="0.2"/>
</svg>
